<svg xmlns="http://www.w3.org/2000/svg" xmlns:xlink="http://www.w3.org/1999/xlink" width="500" zoomAndPan="magnify" viewBox="0 0 375 374.999991" height="500" preserveAspectRatio="xMidYMid meet" version="1.0"><defs><clipPath id="ba5e1deeba"><path d="M 121 10.578125 L 269 10.578125 L 269 160 L 121 160 Z M 121 10.578125 " clip-rule="nonzero"/></clipPath><clipPath id="3174c313a7"><path d="M 225 253 L 273.042969 253 L 273.042969 274 L 225 274 Z M 225 253 " clip-rule="nonzero"/></clipPath><clipPath id="ba805d1716"><path d="M 64.542969 218 L 121 218 L 121 276 L 64.542969 276 Z M 64.542969 218 " clip-rule="nonzero"/></clipPath><clipPath id="c60c84821a"><path d="M 182 348 L 209 348 L 209 364.578125 L 182 364.578125 Z M 182 348 " clip-rule="nonzero"/></clipPath><clipPath id="3a7d078bcc"><path d="M 165 343 L 184 343 L 184 364.578125 L 165 364.578125 Z M 165 343 " clip-rule="nonzero"/></clipPath><clipPath id="ff494daed2"><path d="M 208 348 L 226 348 L 226 364.578125 L 208 364.578125 Z M 208 348 " clip-rule="nonzero"/></clipPath></defs><path fill="#ffffff" d="M 208.453125 202.3125 C 208.453125 199.179688 210.988281 196.644531 214.117188 196.644531 L 219.785156 196.644531 C 222.914062 196.644531 225.449219 199.179688 225.449219 202.3125 L 225.449219 348.515625 L 208.453125 348.515625 Z M 208.453125 202.3125 " fill-opacity="1" fill-rule="nonzero"/><path fill="#ffffff" d="M 225.449219 170.578125 C 225.449219 167.449219 222.914062 164.910156 219.785156 164.910156 L 214.117188 164.910156 C 210.988281 164.910156 208.453125 167.449219 208.453125 170.578125 L 208.453125 177.375 C 208.453125 180.507812 210.988281 183.042969 214.117188 183.042969 L 219.785156 183.042969 C 222.914062 183.042969 225.449219 180.507812 225.449219 177.375 Z M 225.449219 170.578125 " fill-opacity="1" fill-rule="nonzero"/><g clip-path="url(#ba5e1deeba)"><path fill="#ffffff" d="M 194.855469 159.242188 C 235.535156 159.242188 268.511719 126.007812 268.511719 85.007812 C 268.511719 44.007812 235.535156 10.773438 194.855469 10.773438 C 154.175781 10.773438 121.199219 44.007812 121.199219 85.007812 C 121.199219 126.007812 154.175781 159.242188 194.855469 159.242188 Z M 195.421875 74.242188 C 202.617188 74.242188 208.453125 68.152344 208.453125 60.640625 C 208.453125 53.128906 202.617188 47.039062 195.421875 47.039062 C 188.226562 47.039062 182.390625 53.128906 182.390625 60.640625 C 182.390625 68.152344 188.226562 74.242188 195.421875 74.242188 Z M 195.421875 74.242188 " fill-opacity="1" fill-rule="evenodd"/></g><path fill="#ffffff" d="M 165.394531 139.976562 L 183.523438 139.976562 L 183.523438 343.980469 L 165.394531 343.980469 Z M 165.394531 139.976562 " fill-opacity="1" fill-rule="nonzero"/><g clip-path="url(#3174c313a7)"><path fill="#ffffff" d="M 225.449219 253.3125 L 262.84375 253.3125 C 268.476562 253.3125 273.042969 257.878906 273.042969 263.511719 C 273.042969 269.144531 268.476562 273.710938 262.84375 273.710938 L 225.449219 273.710938 Z M 225.449219 253.3125 " fill-opacity="1" fill-rule="nonzero"/></g><path fill="#ffffff" d="M 225.449219 217.042969 L 245.847656 217.042969 C 251.480469 217.042969 256.046875 221.609375 256.046875 227.246094 C 256.046875 232.878906 251.480469 237.445312 245.847656 237.445312 L 225.449219 237.445312 Z M 225.449219 217.042969 " fill-opacity="1" fill-rule="nonzero"/><path fill="#ffffff" d="M 135.929688 292.980469 L 114.402344 292.980469 L 114.402344 283.914062 C 114.402344 277.652344 119.476562 272.578125 125.734375 272.578125 L 135.929688 272.578125 Z M 135.929688 292.980469 " fill-opacity="1" fill-rule="nonzero"/><g clip-path="url(#ba805d1716)"><path fill="#ffffff" d="M 120.066406 247.078125 C 120.066406 248.023438 120.023438 248.96875 119.933594 249.910156 C 119.84375 250.851562 119.710938 251.789062 119.535156 252.714844 C 119.355469 253.644531 119.136719 254.5625 118.871094 255.46875 C 118.609375 256.375 118.300781 257.261719 117.953125 258.136719 C 117.605469 259.011719 117.21875 259.867188 116.789062 260.703125 C 116.359375 261.535156 115.894531 262.347656 115.386719 263.132812 C 114.882812 263.921875 114.34375 264.679688 113.765625 265.414062 C 113.1875 266.144531 112.578125 266.84375 111.9375 267.515625 C 111.292969 268.183594 110.621094 268.816406 109.917969 269.417969 C 109.214844 270.019531 108.484375 270.582031 107.730469 271.109375 C 106.972656 271.632812 106.195312 272.121094 105.390625 272.566406 C 104.589844 273.011719 103.769531 273.417969 102.929688 273.777344 C 102.089844 274.140625 101.234375 274.460938 100.363281 274.734375 C 99.492188 275.007812 98.613281 275.238281 97.722656 275.421875 C 96.828125 275.609375 95.929688 275.746094 95.027344 275.839844 C 94.121094 275.933594 93.214844 275.980469 92.304688 275.980469 C 91.394531 275.980469 90.488281 275.933594 89.582031 275.839844 C 88.679688 275.746094 87.78125 275.609375 86.890625 275.421875 C 85.996094 275.238281 85.117188 275.007812 84.246094 274.734375 C 83.375 274.460938 82.519531 274.140625 81.679688 273.777344 C 80.839844 273.417969 80.019531 273.011719 79.21875 272.566406 C 78.414062 272.121094 77.636719 271.632812 76.882812 271.109375 C 76.125 270.582031 75.394531 270.019531 74.691406 269.417969 C 73.988281 268.816406 73.316406 268.183594 72.675781 267.515625 C 72.03125 266.84375 71.421875 266.144531 70.84375 265.414062 C 70.265625 264.679688 69.726562 263.921875 69.222656 263.132812 C 68.714844 262.347656 68.25 261.535156 67.820312 260.703125 C 67.390625 259.867188 67.003906 259.011719 66.65625 258.136719 C 66.308594 257.261719 66.003906 256.375 65.738281 255.46875 C 65.472656 254.5625 65.253906 253.644531 65.074219 252.714844 C 64.898438 251.789062 64.765625 250.851562 64.675781 249.910156 C 64.585938 248.96875 64.542969 248.023438 64.542969 247.078125 C 64.542969 246.132812 64.585938 245.1875 64.675781 244.246094 C 64.765625 243.304688 64.898438 242.367188 65.074219 241.441406 C 65.253906 240.511719 65.472656 239.59375 65.738281 238.6875 C 66.003906 237.78125 66.308594 236.894531 66.65625 236.019531 C 67.003906 235.144531 67.390625 234.289062 67.820312 233.453125 C 68.25 232.621094 68.714844 231.808594 69.222656 231.023438 C 69.726562 230.234375 70.265625 229.476562 70.84375 228.742188 C 71.421875 228.011719 72.03125 227.3125 72.675781 226.640625 C 73.316406 225.972656 73.988281 225.339844 74.691406 224.738281 C 75.394531 224.136719 76.125 223.574219 76.882812 223.046875 C 77.636719 222.523438 78.414062 222.035156 79.21875 221.589844 C 80.019531 221.144531 80.839844 220.738281 81.679688 220.378906 C 82.519531 220.015625 83.375 219.695312 84.246094 219.421875 C 85.117188 219.148438 85.996094 218.917969 86.890625 218.734375 C 87.78125 218.546875 88.679688 218.410156 89.582031 218.316406 C 90.488281 218.222656 91.394531 218.175781 92.304688 218.175781 C 93.214844 218.175781 94.121094 218.222656 95.027344 218.316406 C 95.929688 218.410156 96.828125 218.546875 97.722656 218.734375 C 98.613281 218.917969 99.492188 219.148438 100.363281 219.421875 C 101.234375 219.695312 102.089844 220.015625 102.929688 220.378906 C 103.769531 220.738281 104.589844 221.144531 105.390625 221.589844 C 106.195312 222.035156 106.972656 222.523438 107.730469 223.046875 C 108.484375 223.574219 109.214844 224.136719 109.917969 224.738281 C 110.621094 225.339844 111.292969 225.972656 111.9375 226.640625 C 112.578125 227.3125 113.1875 228.011719 113.765625 228.742188 C 114.34375 229.476562 114.882812 230.234375 115.386719 231.023438 C 115.894531 231.808594 116.359375 232.621094 116.789062 233.453125 C 117.21875 234.289062 117.605469 235.144531 117.953125 236.019531 C 118.300781 236.894531 118.609375 237.78125 118.871094 238.6875 C 119.136719 239.59375 119.355469 240.511719 119.535156 241.441406 C 119.710938 242.367188 119.84375 243.304688 119.933594 244.246094 C 120.023438 245.1875 120.066406 246.132812 120.066406 247.078125 Z M 120.066406 247.078125 " fill-opacity="1" fill-rule="nonzero"/></g><path fill="#ffffff" d="M 114.402344 288.445312 L 134.796875 288.445312 L 134.796875 308.847656 C 134.796875 314.480469 130.230469 319.046875 124.601562 319.046875 C 118.96875 319.046875 114.402344 314.480469 114.402344 308.847656 Z M 114.402344 288.445312 " fill-opacity="1" fill-rule="nonzero"/><path fill="#ffffff" d="M 134.796875 272.578125 L 168.792969 272.578125 L 168.792969 292.980469 L 134.796875 292.980469 Z M 134.796875 272.578125 " fill-opacity="1" fill-rule="nonzero"/><path fill="#ffffff" d="M 114.402344 235.179688 L 169.925781 235.179688 L 169.925781 255.578125 L 114.402344 255.578125 Z M 114.402344 235.179688 " fill-opacity="1" fill-rule="nonzero"/><path fill="#ffffff" d="M 134.796875 197.777344 L 113.269531 197.777344 L 113.269531 206.84375 C 113.269531 213.105469 118.339844 218.175781 124.601562 218.175781 L 134.796875 218.175781 Z M 134.796875 197.777344 " fill-opacity="1" fill-rule="nonzero"/><path fill="#ffffff" d="M 113.269531 179.644531 C 113.269531 174.007812 117.835938 169.441406 123.464844 169.441406 C 129.097656 169.441406 133.664062 174.007812 133.664062 179.644531 L 133.664062 200.042969 L 113.269531 200.042969 Z M 113.269531 179.644531 " fill-opacity="1" fill-rule="nonzero"/><path fill="#ffffff" d="M 134.796875 197.777344 L 168.792969 197.777344 L 168.792969 218.175781 L 134.796875 218.175781 Z M 134.796875 197.777344 " fill-opacity="1" fill-rule="nonzero"/><g clip-path="url(#c60c84821a)"><path fill="#ffffff" d="M 182.390625 348.515625 L 208.453125 348.515625 L 208.453125 364.382812 L 182.390625 364.382812 Z M 182.390625 348.515625 " fill-opacity="1" fill-rule="nonzero"/></g><g clip-path="url(#3a7d078bcc)"><path fill="#ffffff" d="M 183.523438 343.980469 L 165.394531 343.980469 L 165.394531 346.246094 C 165.394531 356.261719 173.511719 364.382812 183.523438 364.382812 Z M 183.523438 343.980469 " fill-opacity="1" fill-rule="nonzero"/></g><g clip-path="url(#ff494daed2)"><path fill="#ffffff" d="M 208.453125 348.515625 L 225.449219 348.515625 C 225.449219 357.277344 218.347656 364.382812 209.585938 364.382812 L 208.453125 364.382812 Z M 208.453125 348.515625 " fill-opacity="1" fill-rule="nonzero"/></g></svg>